<svg width="118" height="33" viewBox="0 0 118 33" fill="none" xmlns="http://www.w3.org/2000/svg">
<path fill-rule="evenodd" clip-rule="evenodd" d="M50.5583 18.447V6.567C50.5583 2.409 48.7433 0 44.3873 0H43.7273C39.5033 0 37.5893 2.409 37.5893 6.6V18.447C37.5893 22.77 39.5363 25.113 43.7603 25.113H44.4203C48.5783 25.113 50.5583 22.77 50.5583 18.447ZM46.1363 6.633V18.48C46.1363 20.328 45.4433 21.252 44.0903 21.252C42.7043 21.252 42.0113 20.328 42.0113 18.48V6.633C42.0113 4.587 42.7373 3.828 44.0573 3.828C45.3443 3.828 46.1363 4.587 46.1363 6.633Z" fill="white"/>
<path d="M4.389 24.816V0.264001H0V24.816H4.389Z" fill="white"/>
<path d="M16.1754 16.269C15.8454 14.883 15.4164 13.464 14.6574 11.088L11.1594 0.264001H6.86941V24.816H10.6974V14.553C10.6974 11.088 10.5984 9.306 10.4664 7.953C10.7634 9.273 11.2254 10.923 12.0504 13.233L16.0104 24.816H19.8054V0.264001H16.0104V9.768C16.0104 13.431 16.0764 14.85 16.1754 16.269Z" fill="white"/>
<path d="M30.0669 11.088C30.8259 13.464 31.2549 14.883 31.5849 16.269C31.4859 14.85 31.4199 13.431 31.4199 9.768V0.264001H35.2149V24.816H31.4199L27.4599 13.233C26.6349 10.923 26.1729 9.273 25.8759 7.953C26.0079 9.306 26.1069 11.088 26.1069 14.553V24.816H22.2789V0.264001H26.5689L30.0669 11.088Z" fill="white"/>
<path d="M55.6504 24.816L51.5254 0.264001H55.9474L58.4554 18.447L60.9634 0.264001H65.1544L61.0954 24.816H55.6504Z" fill="white"/>
<path fill-rule="evenodd" clip-rule="evenodd" d="M73.7839 20.295L74.5099 24.816H78.7339L74.3449 0.264001H68.8669L64.7419 24.816H68.6029L69.2959 20.295H73.7839ZM69.8899 16.632L70.7479 11.121C71.1439 8.481 71.4079 6.633 71.5399 5.247C71.6389 6.633 71.8699 8.415 72.2989 11.121L73.1899 16.632H69.8899Z" fill="white"/>
<path d="M81.8962 24.816V4.158H77.9032V0.264001H90.2452V4.158H86.2852V24.816H81.8962Z" fill="white"/>
<path d="M102.673 0.264001H91.8818V24.816H102.871V20.889H96.1718V14.091H101.584V10.164H96.1718V4.092H102.673V0.264001Z" fill="white"/>
<path d="M107.392 24.816H103.069L107.491 11.814L103.531 0.264001H108.019L110.395 8.415L112.771 0.264001H117.094L113.2 11.913L117.49 24.816H113.101L110.263 15.807L107.392 24.816Z" fill="white"/>
<path fill-rule="evenodd" clip-rule="evenodd" d="M26.0194 28H26.2408C27.9916 28 28.4897 29.3329 28.4897 30.3862V30.5813C28.4897 31.6216 27.9916 32.9935 26.2408 32.9935H26.0194C24.2686 32.9935 23.7705 31.6216 23.7705 30.5813V30.3862C23.7705 29.3329 24.2686 28 26.0194 28ZM27.413 30.4382C27.413 29.8401 27.1866 29.1053 26.1301 29.1053C25.0836 29.1053 24.8472 29.8401 24.8472 30.4382V30.5293C24.8472 31.1144 25.0987 31.8817 26.1301 31.8817C27.1816 31.8817 27.413 31.1144 27.413 30.5293V30.4382Z" fill="white"/>
<path d="M14.2444 33H14.0985C12.3426 33 12.1414 31.9727 12.1414 31.394V31.3225H13.2683C13.2834 31.5371 13.3539 32.0182 14.1488 32.0182H14.184C14.9638 32.0182 15.0644 31.7126 15.0644 31.4395C15.0644 31.1534 14.9185 30.9649 14.2997 30.9389L13.8016 30.9194C12.574 30.8739 12.1816 30.2367 12.1816 29.5085V29.4499C12.1816 28.7022 12.4935 28.0195 14.0431 28.0195H14.2142C15.8694 28.0195 16.0958 28.7997 16.0958 29.4369V29.5085H14.9839C14.9588 29.2939 14.8632 28.9753 14.1437 28.9753H14.0934C13.4293 28.9753 13.2734 29.1378 13.2734 29.4044C13.2734 29.6515 13.4092 29.8335 13.9978 29.8661L14.516 29.8921C15.8493 29.9571 16.1713 30.5228 16.1713 31.3095V31.3875C16.1713 32.0962 15.9197 33 14.2444 33Z" fill="white"/>
<path d="M1.73573 32.9155H3.09916L4.77452 28.078H3.64755L2.42499 31.7451L1.20747 28.078H0L1.73573 32.9155Z" fill="white"/>
<path d="M8.85278 32.9155V28.078H7.81637V32.9155H8.85278Z" fill="white"/>
<path d="M20.497 32.9155V28.078H19.4606V32.9155H20.497Z" fill="white"/>
<path d="M32.7745 29.7815L35.0083 32.9155H36.0246V28.078H35.0184V31.1925L32.8299 28.078H31.7633V32.9155H32.7745V29.7815Z" fill="white"/>
<path d="M44.4734 28.078V32.9155H43.437V28.078H44.4734Z" fill="white"/>
<path d="M48.9242 29.7815L51.158 32.9155H52.1743V28.078H51.168V31.1925L48.9795 28.078H47.9129V32.9155H48.9242V29.7815Z" fill="white"/>
<path d="M56.8343 32.9155V29.1834H55.3854V28.078H59.3147V29.1834H57.8657V32.9155H56.8343Z" fill="white"/>
<path fill-rule="evenodd" clip-rule="evenodd" d="M64.7012 28H64.4799C62.7291 28 62.231 29.3329 62.231 30.3862V30.5813C62.231 31.6216 62.7291 32.9935 64.4799 32.9935H64.7012C66.4521 32.9935 66.9501 31.6216 66.9501 30.5813V30.3862C66.9501 29.3329 66.4521 28 64.7012 28ZM64.5906 29.1053C65.6471 29.1053 65.8735 29.8401 65.8735 30.4382V30.5293C65.8735 31.1144 65.6421 31.8817 64.5906 31.8817C63.5592 31.8817 63.3076 31.1144 63.3076 30.5293V30.4382C63.3076 29.8401 63.5441 29.1053 64.5906 29.1053Z" fill="white"/>
<path fill-rule="evenodd" clip-rule="evenodd" d="M77.5091 30.5878C78.0172 30.7373 78.3241 31.1339 78.3241 31.8427V32.3433C78.3241 32.7074 78.3543 32.8049 78.3845 32.883V32.9155H77.3129C77.2978 32.883 77.2776 32.7919 77.2776 32.5774V32.1808C77.2776 31.5566 77.1015 31.2705 76.5783 31.2705H75.23V32.9155H74.1936V28.078H76.7142C78.138 28.078 78.299 28.8453 78.299 29.3719V29.4369C78.299 30.0416 77.977 30.4512 77.5091 30.5878ZM75.23 29.1443V30.1717H76.6739C77.0965 30.1717 77.2122 29.9376 77.2122 29.658V29.645C77.2122 29.3719 77.0965 29.1443 76.6739 29.1443H75.23Z" fill="white"/>
<path d="M85.0731 28.078H81.6469V32.9155H85.1032V31.8492H82.6682V31.0104H84.9976V29.9181H82.6682V29.1313H85.0731V28.078Z" fill="white"/>
<path fill-rule="evenodd" clip-rule="evenodd" d="M91.7119 32.9155L91.405 32.0182H89.3825L89.0807 32.9155H88.0392L89.6995 28.078H91.0881L92.8238 32.9155H91.7119ZM91.0579 31.0234L90.3787 29.0533L89.7196 31.0234H91.0579Z" fill="white"/>
<path d="M96.8922 28.078H95.8558V32.9155H99.1814V31.7776H96.8922V28.078Z" fill="white"/>
<path d="M103.442 28.078V32.9155H102.405V28.078H103.442Z" fill="white"/>
<path d="M108.099 29.1834V32.9155H109.13V29.1834H110.579V28.078H106.65V29.1834H108.099Z" fill="white"/>
<path d="M115.173 32.9155V31.1469L113.316 28.078H114.599L115.721 29.9961L116.843 28.078H118L116.209 31.1534V32.9155H115.173Z" fill="white"/>
</svg>
